<svg width="15" height="18" viewBox="0 0 15 18" fill="none" xmlns="http://www.w3.org/2000/svg">
<path d="M9.96628 2.88468C10.5871 2.10814 11.0084 1.06548 10.8973 0C9.98848 0.0451907 8.87943 0.599583 8.23735 1.37673C7.66083 2.04224 7.15056 3.12856 7.28359 4.14937C8.30379 4.23786 9.32305 3.63943 9.96628 2.88468Z" fill="black"/>
<path d="M10.8857 4.34868C9.40415 4.26043 8.14444 5.18955 7.43691 5.18955C6.72899 5.18955 5.64553 4.39316 4.47368 4.41462C2.94845 4.43702 1.5332 5.2994 0.759209 6.671C-0.832764 9.41485 0.339088 13.485 1.8872 15.7197C2.63899 16.8253 3.54504 18.0426 4.73889 17.9989C5.86687 17.9546 6.309 17.2685 7.68012 17.2685C9.05023 17.2685 9.44849 17.9989 10.6425 17.9767C11.8808 17.9546 12.6549 16.8706 13.4067 15.7639C14.2692 14.5036 14.6222 13.2867 14.6444 13.2199C14.6222 13.1978 12.2567 12.2903 12.2348 9.56924C12.2124 7.29087 14.092 6.20715 14.1804 6.13994C13.119 4.57016 11.4607 4.39316 10.8857 4.34868Z" fill="black"/>
</svg>
