<svg width="18" height="18" viewBox="0 0 18 18" fill="none" xmlns="http://www.w3.org/2000/svg">
<g clip-path="url(#clip0_34_125)">
<path fill-rule="evenodd" clip-rule="evenodd" d="M17.64 9.19999C17.64 8.56298 17.583 7.94899 17.476 7.35999H9V10.841H13.844C13.635 11.966 13.001 12.919 12.048 13.558V15.816H14.956C16.658 14.249 17.64 11.942 17.64 9.20099V9.19999Z" fill="#4285F4"/>
<path fill-rule="evenodd" clip-rule="evenodd" d="M9.00299 18C11.433 18 13.47 17.194 14.959 15.82L12.05 13.56C11.244 14.1 10.214 14.42 9.00299 14.42C6.65899 14.42 4.67499 12.836 3.96699 10.709H0.959991V13.041C2.43999 15.983 5.48499 18 9.00299 18Z" fill="#34A853"/>
<path fill-rule="evenodd" clip-rule="evenodd" d="M3.964 10.712C3.784 10.172 3.682 9.59502 3.682 9.00202C3.682 8.40902 3.784 7.83202 3.964 7.29202V4.96002H0.957C0.347 6.17502 0 7.55002 0 9.00202C0 10.454 0.348 11.829 0.957 13.044L3.964 10.712Z" fill="#FBBC05"/>
<path fill-rule="evenodd" clip-rule="evenodd" d="M9.00299 3.58C10.324 3.58 11.511 4.034 12.443 4.925L15.025 2.345C13.464 0.891 11.428 0 9.00199 0C5.48499 0 2.43999 2.017 0.959991 4.958L3.96699 7.29C4.67499 5.163 6.65899 3.58 9.00299 3.58Z" fill="#EA4335"/>
</g>
<defs>
<clipPath id="clip0_34_125">
<rect width="18" height="18" fill="white"/>
</clipPath>
</defs>
</svg>
