<svg width="17" height="16" viewBox="0 0 17 16" fill="none" xmlns="http://www.w3.org/2000/svg">
<path fill-rule="evenodd" clip-rule="evenodd" d="M8.5 0.628906C4.16282 0.628906 0.642822 3.36319 0.642822 6.72605C0.642822 8.8239 2.00211 10.6546 4.07639 11.7703L3.20425 14.9682C3.1878 15.0318 3.19118 15.0989 3.21396 15.1605C3.23673 15.2222 3.27781 15.2754 3.33167 15.313C3.38554 15.3506 3.44962 15.3709 3.51532 15.371C3.58102 15.3712 3.6452 15.3513 3.69925 15.3139L7.51782 12.776C7.83997 12.776 8.17 12.8311 8.5 12.8311C12.8371 12.8311 16.3571 10.0968 16.3571 6.72605C16.3571 3.35534 12.8371 0.628906 8.5 0.628906Z" fill="#181600"/>
</svg>
